<?xml version="1.0" encoding="UTF-8" standalone="no"?>
<svg
   xmlns:dc="http://purl.org/dc/elements/1.1/"
   xmlns:cc="http://creativecommons.org/ns#"
   xmlns:rdf="http://www.w3.org/1999/02/22-rdf-syntax-ns#"
   xmlns:svg="http://www.w3.org/2000/svg"
   xmlns="http://www.w3.org/2000/svg"
   xmlns:xlink="http://www.w3.org/1999/xlink"
   xmlns:sodipodi="http://sodipodi.sourceforge.net/DTD/sodipodi-0.dtd"
   xmlns:inkscape="http://www.inkscape.org/namespaces/inkscape"
   id="svg2"
   sodipodi:docname="pow_projects.svg"
   inkscape:export-filename="C:\Users\USER\Desktop\Spacers.png"
   viewBox="0 0 772.47581 742.55134"
   inkscape:export-xdpi="500"
   version="1.1"
   inkscape:export-ydpi="500"
   inkscape:version="1.0.1 (c497b03c, 2020-09-10)"
   width="772.47583"
   height="742.55133">
  <title
     id="title5661">Pow</title>
  <defs
     id="defs4">
    <filter
       id="filter7822-1"
       color-interpolation-filters="sRGB"
       inkscape:collect="always">
      <feGaussianBlur
         id="feGaussianBlur7824-7"
         stdDeviation="4.0248438"
         inkscape:collect="always" />
    </filter>
    <linearGradient
       id="linearGradient7778-4">
      <stop
         id="stop7780-0"
         style="stop-color:#ffcc00"
         offset="0" />
      <stop
         id="stop7782-9"
         style="stop-color:#e40039;stop-opacity:.96471"
         offset="1" />
    </linearGradient>
    <linearGradient
       id="linearGradient7790-4">
      <stop
         id="stop7792-8"
         style="stop-color:#ffd600"
         offset="0" />
      <stop
         id="stop7794-8"
         style="stop-color:#ffcc00;stop-opacity:0"
         offset="1" />
    </linearGradient>
    <radialGradient
       id="radialGradient3945"
       xlink:href="#linearGradient7778-4"
       gradientUnits="userSpaceOnUse"
       cy="815.23999"
       cx="680.14001"
       gradientTransform="matrix(1.2134,-3.459e-7,3.8323e-7,1.3444,-145.13,-280.73)"
       r="198.83"
       inkscape:collect="always" />
    <radialGradient
       id="radialGradient3947"
       xlink:href="#linearGradient7790-4"
       gradientUnits="userSpaceOnUse"
       cy="815.23999"
       cx="680.14001"
       gradientTransform="matrix(1.4947,0.014182,-0.0097182,1.0242,-328.72,-29.543)"
       r="136.7"
       inkscape:collect="always" />
    <radialGradient
       inkscape:collect="always"
       xlink:href="#linearGradient7778-4"
       id="radialGradient297"
       gradientUnits="userSpaceOnUse"
       gradientTransform="matrix(1.2134,-3.459e-7,3.8323e-7,1.3444,-145.13,-280.73)"
       cx="680.14001"
       cy="815.23999"
       r="198.83" />
    <radialGradient
       inkscape:collect="always"
       xlink:href="#linearGradient7790-4"
       id="radialGradient299"
       gradientUnits="userSpaceOnUse"
       gradientTransform="matrix(1.4947,0.014182,-0.0097182,1.0242,-328.72,-29.543)"
       cx="680.14001"
       cy="815.23999"
       r="136.7" />
  </defs>
  <sodipodi:namedview
     id="base"
     bordercolor="#666666"
     inkscape:pageshadow="2"
     inkscape:window-y="25"
     pagecolor="#ffffff"
     inkscape:window-height="982"
     inkscape:window-maximized="0"
     inkscape:zoom="0.98994952"
     inkscape:window-x="0"
     showgrid="false"
     borderopacity="1.0"
     inkscape:current-layer="layer1"
     inkscape:cx="177.39838"
     inkscape:cy="355.49267"
     inkscape:showpageshadow="false"
     inkscape:window-width="1792"
     inkscape:pageopacity="0.0"
     inkscape:document-units="px"
     inkscape:document-rotation="0"
     inkscape:snap-text-baseline="true"
     inkscape:object-nodes="false"
     inkscape:snap-nodes="false"
     fit-margin-top="-220"
     fit-margin-left="-220"
     fit-margin-right="-210"
     fit-margin-bottom="-210" />
  <g
     id="layer1"
     inkscape:label="Layer 1"
     inkscape:groupmode="layer"
     transform="translate(16.605174,-204.09684)">
    <g
       id="g321"
       transform="translate(-37.375642,-72.730979)">
      <g
         id="g13586"
         transform="matrix(1.4257441,0.75913138,-0.80093122,1.3971694,77.184218,-1016.5279)">
        <path
           id="path13588"
           style="opacity:0.68269;fill:#000000;fill-rule:evenodd;filter:url(#filter7822-1)"
           transform="matrix(1.1219,0,0,1.1219,-83.597,-99.375)"
           d="m 753.78,611.58 c 0,0 -38.635,81.371 -72.125,90.531 -15.44,4.2234 -41.508,-6.9372 -61.469,-17.562 -20.67,-18.162 -36.969,-35.563 -36.969,-35.563 0,10e-5 44.177,91.108 32.844,118.31 -0.0476,0.1143 -0.1057,0.2297 -0.1562,0.3437 -30.496,14.173 -99.719,13.656 -99.719,13.656 0,-10e-5 21.54,7.2666 43.344,17.406 -34.847,10.197 -72.562,15.469 -72.562,15.469 0,-10e-5 97.365,14.869 110.03,37.437 1.3333,2.3756 2.4604,5.0213 3.375,7.875 -13.902,38.054 -54.5,90.094 -54.5,90.094 0,0 27.329,-18.986 56.031,-33.906 -4.1834,32.112 -13.375,62.031 -13.375,62.031 0,0 55.32,-57.153 86.25,-56.531 2.4844,0.0499 5.1023,0.4703 7.8125,1.1562 22.778,35.192 41.5,96.562 41.5,96.562 0,0 -0.2061,-36.786 4.2812,-69.062 21.486,17.888 39.031,37.531 39.031,37.531 0,0 -23.497,-56.309 -17.906,-86.687 22.618,-12.459 64.77,-12.18 92.688,-10.313 23.62,7.864 42.438,16.719 42.438,16.719 0,0 -8.3948,-5.7735 -19.625,-14.656 2.9774,0.3541 4.75,0.5937 4.75,0.5937 0,0 -26.288,-18.454 -46.531,-39.781 -9.0061,-10.797 -15.676,-21.794 -16.75,-31.5 -3.1472,-28.429 47.438,-82.719 47.438,-82.719 0,0 -13.59,8.7993 -31.188,16.344 13.726,-22.289 28.625,-40.531 28.625,-40.531 0,0 -73.41,45.276 -97.562,26.875 -1.3094,-0.9976 -2.4982,-2.1595 -3.5938,-3.4375 -5.7022,-34.414 3.9063,-92.344 3.9063,-92.344 0,-10e-5 -4.7423,9.0481 -11.844,20.937 3.919,-29.203 11.531,-55.281 11.531,-55.281 z" />
        <g
           id="g13590">
          <path
             id="path13592"
             style="fill:url(#radialGradient297);fill-rule:evenodd"
             d="m 748.12,611.58 c -2e-5,0 -38.635,81.371 -72.125,90.531 -15.44,4.2234 -41.509,-6.9372 -61.469,-17.562 -20.67,-18.162 -36.969,-35.563 -36.969,-35.563 -10e-6,10e-5 44.177,91.108 32.844,118.31 -0.0476,0.1143 -0.10572,0.2297 -0.15625,0.3437 -30.496,14.173 -99.719,13.656 -99.719,13.656 -1e-5,-10e-5 21.54,7.2665 43.344,17.406 -34.847,10.197 -72.562,15.469 -72.562,15.469 -2e-5,-10e-5 97.365,14.869 110.03,37.437 1.3332,2.3756 2.4604,5.0213 3.375,7.875 -13.902,38.054 -54.5,90.094 -54.5,90.094 0,0 27.329,-18.986 56.031,-33.906 -4.1834,32.112 -13.375,62.031 -13.375,62.031 0,0 55.32,-57.153 86.25,-56.531 2.4844,0.0499 5.1023,0.4703 7.8125,1.1562 22.778,35.192 41.5,96.563 41.5,96.563 -10e-6,0 -0.20608,-36.786 4.2812,-69.063 21.486,17.888 39.031,37.531 39.031,37.531 0,0 -23.497,-56.309 -17.906,-86.687 22.618,-12.459 64.77,-12.18 92.688,-10.313 23.62,7.864 42.438,16.719 42.438,16.719 0,0 -8.3948,-5.7735 -19.625,-14.656 2.9773,0.3541 4.75,0.5937 4.75,0.5937 -2e-5,0 -26.288,-18.454 -46.531,-39.781 -9.0061,-10.797 -15.676,-21.794 -16.75,-31.5 -3.1472,-28.429 47.438,-82.719 47.438,-82.719 -10e-6,0 -13.59,8.7993 -31.188,16.344 13.726,-22.289 28.625,-40.531 28.625,-40.531 3e-5,0 -73.41,45.276 -97.562,26.875 -1.3094,-0.9976 -2.4982,-2.1595 -3.5938,-3.4375 -5.7022,-34.414 3.9062,-92.344 3.9062,-92.344 10e-6,-10e-5 -4.7423,9.0481 -11.844,20.937 3.9189,-29.203 11.531,-55.281 11.531,-55.281 z" />
          <path
             id="path13594"
             style="opacity:0.61058;fill:url(#radialGradient299);fill-rule:evenodd"
             d="m 734.1,677.76 c -10e-6,0 -29.494,54.455 -52.82,59.523 -10.755,2.3363 -28.244,-6.277 -41.56,-14.3 -13.529,-13.223 -24.083,-25.764 -24.083,-25.764 -10e-6,7e-5 27.006,64.162 18.232,82.425 -0.0369,0.0767 -0.081,0.15384 -0.1198,0.23026 -21.454,8.618 -68.96,5.7377 -68.96,5.7377 -1e-5,-7e-5 14.523,5.7746 29.122,13.531 -24.296,5.7295 -50.382,7.9728 -50.382,7.9728 -10e-6,-7e-5 66.303,13.76 74.176,29.717 0.82865,1.6796 1.506,3.5371 2.0298,5.5297 -10.933,25.619 -40.704,59.865 -40.704,59.865 0,0 19.455,-12.038 39.705,-21.234 -4.0436,21.894 -11.446,42.099 -11.446,42.099 0,0 40.065,-37.22 61.277,-35.665 1.7038,0.12491 3.4858,0.50903 5.3215,1.0788 14.355,24.992 24.969,67.809 24.969,67.809 -10e-6,0 1.2005,-25.263 5.4588,-47.258 14.099,13.065 25.428,27.191 25.428,27.191 0,0 -14.077,-39.516 -9.1309,-60.168 15.983,-7.7285 44.912,-5.9993 64.01,-3.6987 15.929,6.2607 28.525,13.026 28.525,13.026 0,0 -5.5528,-4.27 -12.939,-10.778 2.0312,0.35174 3.2394,0.5809 3.2394,0.5809 -10e-6,0 -17.375,-13.628 -30.495,-29.009 -5.7892,-7.7413 -9.9668,-15.535 -10.35,-22.237 -1.1236,-19.632 35.586,-55.06 35.586,-55.06 0,0 -9.6508,5.5454 -22.008,10.083 10.236,-14.802 21.131,-26.782 21.131,-26.782 2e-5,0 -52.051,28.406 -67.962,14.892 -0.86259,-0.73267 -1.6364,-1.5737 -2.3419,-2.4911 -2.6594,-23.835 6.0507,-63.256 6.0507,-63.256 10e-6,-6e-5 -3.5859,6.0389 -8.8951,13.942 3.7559,-19.906 9.9335,-37.532 9.9335,-37.532 z" />
        </g>
      </g>
      <g
         id="g7828"
         transform="matrix(0.03598563,-1.5704168,-1.6548298,-0.03414992,1740.4473,1771.4702)">
        <path
           id="path7804"
           style="opacity:0.68269;fill:#000000;fill-rule:evenodd;filter:url(#filter7822-1)"
           transform="matrix(1.1219,0,0,1.1219,-83.597,-99.375)"
           d="m 753.78,611.58 c 0,0 -38.635,81.371 -72.125,90.531 -15.44,4.2234 -41.508,-6.9372 -61.469,-17.562 -20.67,-18.162 -36.969,-35.563 -36.969,-35.563 0,10e-5 44.177,91.108 32.844,118.31 -0.0476,0.1143 -0.1057,0.2297 -0.1562,0.3437 -30.496,14.173 -99.719,13.656 -99.719,13.656 0,-10e-5 21.54,7.2666 43.344,17.406 -34.847,10.197 -72.562,15.469 -72.562,15.469 0,-10e-5 97.365,14.869 110.03,37.437 1.3333,2.3756 2.4604,5.0213 3.375,7.875 -13.902,38.054 -54.5,90.094 -54.5,90.094 0,0 27.329,-18.986 56.031,-33.906 -4.1834,32.112 -13.375,62.031 -13.375,62.031 0,0 55.32,-57.153 86.25,-56.531 2.4844,0.0499 5.1023,0.4703 7.8125,1.1562 22.778,35.192 41.5,96.562 41.5,96.562 0,0 -0.2061,-36.786 4.2812,-69.062 21.486,17.888 39.031,37.531 39.031,37.531 0,0 -23.497,-56.309 -17.906,-86.687 22.618,-12.459 64.77,-12.18 92.688,-10.313 23.62,7.864 42.438,16.719 42.438,16.719 0,0 -8.3948,-5.7735 -19.625,-14.656 2.9774,0.3541 4.75,0.5937 4.75,0.5937 0,0 -26.288,-18.454 -46.531,-39.781 -9.0061,-10.797 -15.676,-21.794 -16.75,-31.5 -3.1472,-28.429 47.438,-82.719 47.438,-82.719 0,0 -13.59,8.7993 -31.188,16.344 13.726,-22.289 28.625,-40.531 28.625,-40.531 0,0 -73.41,45.276 -97.562,26.875 -1.3094,-0.9976 -2.4982,-2.1595 -3.5938,-3.4375 -5.7022,-34.414 3.9063,-92.344 3.9063,-92.344 0,-10e-5 -4.7423,9.0481 -11.844,20.937 3.919,-29.203 11.531,-55.281 11.531,-55.281 z" />
        <g
           id="g7798">
          <path
             id="path7773"
             style="fill:url(#radialGradient3945);fill-rule:evenodd"
             d="m 748.12,611.58 c -2e-5,0 -38.635,81.371 -72.125,90.531 -15.44,4.2234 -41.509,-6.9372 -61.469,-17.562 -20.67,-18.162 -36.969,-35.563 -36.969,-35.563 -10e-6,10e-5 44.177,91.108 32.844,118.31 -0.0476,0.1143 -0.10572,0.2297 -0.15625,0.3437 -30.496,14.173 -99.719,13.656 -99.719,13.656 -1e-5,-10e-5 21.54,7.2665 43.344,17.406 -34.847,10.197 -72.562,15.469 -72.562,15.469 -2e-5,-10e-5 97.365,14.869 110.03,37.437 1.3332,2.3756 2.4604,5.0213 3.375,7.875 -13.902,38.054 -54.5,90.094 -54.5,90.094 0,0 27.329,-18.986 56.031,-33.906 -4.1834,32.112 -13.375,62.031 -13.375,62.031 0,0 55.32,-57.153 86.25,-56.531 2.4844,0.0499 5.1023,0.4703 7.8125,1.1562 22.778,35.192 41.5,96.563 41.5,96.563 -10e-6,0 -0.20608,-36.786 4.2812,-69.063 21.486,17.888 39.031,37.531 39.031,37.531 0,0 -23.497,-56.309 -17.906,-86.687 22.618,-12.459 64.77,-12.18 92.688,-10.313 23.62,7.864 42.438,16.719 42.438,16.719 0,0 -8.3948,-5.7735 -19.625,-14.656 2.9773,0.3541 4.75,0.5937 4.75,0.5937 -2e-5,0 -26.288,-18.454 -46.531,-39.781 -9.0061,-10.797 -15.676,-21.794 -16.75,-31.5 -3.1472,-28.429 47.438,-82.719 47.438,-82.719 -10e-6,0 -13.59,8.7993 -31.188,16.344 13.726,-22.289 28.625,-40.531 28.625,-40.531 3e-5,0 -73.41,45.276 -97.562,26.875 -1.3094,-0.9976 -2.4982,-2.1595 -3.5938,-3.4375 -5.7022,-34.414 3.9062,-92.344 3.9062,-92.344 10e-6,-10e-5 -4.7423,9.0481 -11.844,20.937 3.9189,-29.203 11.531,-55.281 11.531,-55.281 z" />
          <path
             id="path7786"
             style="opacity:0.61058;fill:url(#radialGradient3947);fill-rule:evenodd"
             d="m 734.1,677.76 c -10e-6,0 -29.494,54.455 -52.82,59.523 -10.755,2.3363 -28.244,-6.277 -41.56,-14.3 -13.529,-13.223 -24.083,-25.764 -24.083,-25.764 -10e-6,7e-5 27.006,64.162 18.232,82.425 -0.0369,0.0767 -0.081,0.15384 -0.1198,0.23026 -21.454,8.618 -68.96,5.7377 -68.96,5.7377 -1e-5,-7e-5 14.523,5.7746 29.122,13.531 -24.296,5.7295 -50.382,7.9728 -50.382,7.9728 -10e-6,-7e-5 66.303,13.76 74.176,29.717 0.82865,1.6796 1.506,3.5371 2.0298,5.5297 -10.933,25.619 -40.704,59.865 -40.704,59.865 0,0 19.455,-12.038 39.705,-21.234 -4.0436,21.894 -11.446,42.099 -11.446,42.099 0,0 40.065,-37.22 61.277,-35.665 1.7038,0.12491 3.4858,0.50903 5.3215,1.0788 14.355,24.992 24.969,67.809 24.969,67.809 -10e-6,0 1.2005,-25.263 5.4588,-47.258 14.099,13.065 25.428,27.191 25.428,27.191 0,0 -14.077,-39.516 -9.1309,-60.168 15.983,-7.7285 44.912,-5.9993 64.01,-3.6987 15.929,6.2607 28.525,13.026 28.525,13.026 0,0 -5.5528,-4.27 -12.939,-10.778 2.0312,0.35174 3.2394,0.5809 3.2394,0.5809 -10e-6,0 -17.375,-13.628 -30.495,-29.009 -5.7892,-7.7413 -9.9668,-15.535 -10.35,-22.237 -1.1236,-19.632 35.586,-55.06 35.586,-55.06 0,0 -9.6508,5.5454 -22.008,10.083 10.236,-14.802 21.131,-26.782 21.131,-26.782 2e-5,0 -52.051,28.406 -67.962,14.892 -0.86259,-0.73267 -1.6364,-1.5737 -2.3419,-2.4911 -2.6594,-23.835 6.0507,-63.256 6.0507,-63.256 10e-6,-6e-5 -3.5859,6.0389 -8.8951,13.942 3.7559,-19.906 9.9335,-37.532 9.9335,-37.532 z" />
        </g>
      </g>
    </g>
    <g
       aria-label="PROJECTS"
       id="text325"
       style="font-style:normal;font-weight:normal;font-size:80.9873px;line-height:1.25;font-family:sans-serif;fill:#000000;fill-opacity:1;stroke:none;stroke-width:2.02468"
       transform="translate(762.66515,178.79699)">
      <path
         d="m -541.68879,425.49602 q 1.64413,-3.90747 2.44472,-7.75695 0.84784,-3.95381 -0.66463,-7.97084 -0.9988,-2.65275 -2.64139,-4.71696 -1.59533,-2.16853 -3.50273,-3.78688 -1.86014,-1.72268 -3.88077,-2.95225 -1.97337,-1.3339 -3.69973,-2.24157 -2.76966,-1.38024 -5.73632,-1.21516 -2.9952,0.0893 -6.1785,1.28786 -3.2591,1.2271 -6.536,3.32628 -3.27689,2.09918 -6.45835,4.68166 -3.10568,2.55393 -5.94561,5.35397 -2.79268,2.6957 -5.13061,5.22018 -0.78554,0.90154 -0.58119,4.89187 0.17582,3.91453 0.90367,9.52504 0.80364,5.58198 1.87393,12.10201 1.0703,6.52003 1.99791,12.6611 0.97486,6.03673 1.52166,10.93657 0.59406,4.79551 0.32219,7.06132 0.0786,2.04733 0.50661,3.18422 0.71343,1.89483 2.07954,2.76507 1.29032,0.89877 2.9685,1.21883 1.75397,0.29151 3.8013,0.21296 2.04733,-0.0786 4.09466,-0.1571 1.07092,-0.14361 2.05623,-0.51459 1.59165,-0.59928 2.0642,-1.64259 0.47256,-1.0433 0.58395,-2.81599 -0.56552,-4.71972 -0.97946,-9.49651 -0.36668,-4.88113 -0.79043,-9.91383 4.0339,-3.07651 7.89658,-6.60778 3.90994,-3.63559 7.25097,-7.40314 3.41682,-3.79608 6.03736,-7.6385 2.66779,-3.94674 4.32174,-7.5983 z m -27.15685,-7.08254 q 2.10165,-2.00283 4.28001,-3.34224 2.17835,-1.33942 3.92159,-1.99577 1.36427,-0.51367 2.02769,-0.59039 0.71067,-0.18104 0.94787,-0.0107 0.28446,0.066 0.29427,0.32189 -0.0187,0.18013 0.0384,0.33171 0.54221,1.44007 0.11875,3.76295 -0.37621,2.21855 -1.72791,5.06401 -1.30444,2.74112 -3.64144,5.95755 -2.36554,3.14065 -5.78328,6.24477 -0.16693,-4.35057 -0.31421,-8.18931 -0.10003,-3.94307 -0.1617,-7.55443 z"
         style="font-style:normal;font-variant:normal;font-weight:normal;font-stretch:normal;font-family:'Komika Title - Paint';-inkscape-font-specification:'Komika Title - Paint';stroke-width:2.02468"
         id="path350" />
      <path
         d="m -491.25064,448.09322 q 2.25745,0.75987 4.12694,0.79063 1.86948,0.0308 3.34328,-0.41162 1.00839,-0.30268 1.79179,-0.7915 0.80669,-0.41124 1.66766,-0.92334 l -0.0543,0.10085 q 0.59727,-0.26383 1.56681,-0.97764 1.02383,-0.81465 1.92352,-1.76116 0.95398,-1.04735 1.45027,-2.211 0.55058,-1.2645 0.20133,-2.42803 -0.51222,-1.7065 -2.70766,-2.82322 l 0.0233,0.0776 q -2.11788,-1.13999 -4.58487,-2.59798 -2.49028,-1.53556 -5.10469,-3.20297 -2.53685,-1.69069 -5.07369,-3.38139 -2.48256,-1.79154 -4.66256,-3.42023 7.01154,-6.50154 11.55633,-12.77 4.59907,-6.36931 5.70745,-12.53643 l 0.0233,0.0776 q 0.22474,-1.50493 0.1392,-2.91672 -0.0312,-1.51265 -0.54347,-3.21915 -0.88475,-2.9476 -2.3512,-5.29781 -1.46645,-2.35021 -3.28189,-4.17288 -1.73788,-1.84595 -3.66962,-3.21093 -1.87745,-1.46584 -3.66177,-2.6214 -2.91696,-1.83026 -6.24481,-1.93062 -3.25027,-0.12364 -6.50814,0.85424 -2.79246,0.83818 -5.70894,2.39004 -2.8389,1.52858 -5.71652,3.49157 -2.82334,1.86213 -5.53027,4.11211 -2.73021,2.17241 -5.20443,4.35254 -1.34182,1.16377 -1.93075,5.39927 -0.58892,4.23551 -0.68891,10.09995 -0.0224,5.84115 0.25784,12.6907 0.35783,6.82626 0.75438,13.21812 0.45083,6.291 0.85498,11.58134 0.38086,5.21276 0.58293,7.85793 0.16311,1.38851 0.48907,2.47447 0.62864,2.09435 1.77684,3.10261 1.14821,1.00827 2.6997,1.38814 1.52821,0.30231 3.37441,0.25549 1.8462,-0.0468 3.87083,-0.0626 1.10152,0.008 2.03234,-0.2718 1.55136,-0.46565 2.09422,-1.47417 0.62042,-1.03179 0.62017,-2.72286 -0.0937,-4.53793 -0.0866,-9.02158 0.007,-4.48365 -10e-4,-9.30085 2.52912,1.94668 5.26767,3.74594 2.73855,1.79927 5.43053,3.4434 2.74626,1.54327 5.24426,2.82284 2.498,1.27957 4.44517,2.13258 z m -10.81368,-54.33744 q 3.10273,-0.93132 3.79325,-0.0393 l 0.0233,0.0776 q 0.34925,1.16353 -0.33306,3.3977 -0.60473,2.21088 -2.22558,4.98043 -1.54328,2.74626 -4.17251,5.81849 -2.55167,3.04894 -5.99543,5.94287 -0.008,-0.58954 0.008,-1.10152 0.0154,-0.51197 0.0309,-1.02395 l 0.0233,0.0776 q 0.13908,-3.76225 0.23944,-7.09009 0.15464,-3.4287 0.42569,-6.46955 2.15623,-1.83101 4.2893,-2.89405 2.10979,-1.14062 3.89386,-1.67612 z"
         style="font-style:normal;font-variant:normal;font-weight:normal;font-stretch:normal;font-family:'Komika Title - Paint';-inkscape-font-specification:'Komika Title - Paint';stroke-width:2.02468"
         id="path352" />
      <path
         d="m -433.81611,365.02465 q -1.49822,-0.73681 -3.62797,-1.3289 -2.12975,-0.5921 -4.521,-0.87502 -2.33039,-0.37994 -4.80717,-0.31092 -2.39783,0.0509 -4.52924,0.53935 -2.84189,0.65121 -5.68544,2.38292 -2.84355,1.73171 -4.81383,4.0111 -4.06884,5.08668 -6.76775,11.43808 -2.69892,6.35141 -4.05091,13.14195 -1.27305,6.77245 -1.22877,13.4923 0.0443,6.71984 1.40097,12.64044 2.64101,11.52543 9.25059,16.07617 6.67042,4.45371 17.40477,3.07409 l -0.0789,0.0181 q 1.79097,-0.16113 3.52768,-0.55909 5.21013,-1.19389 8.8941,-4.69682 3.66589,-3.58188 6.0227,-8.52551 2.43575,-4.96172 3.65286,-10.89049 1.27797,-6.0258 1.55438,-12.07136 0.35535,-6.06364 -0.12148,-11.77042 -0.47683,-5.70678 -1.48982,-10.1275 -0.61503,-2.684 -1.39453,-4.99797 -0.7795,-2.31397 -1.89943,-4.30067 -1.11994,-1.9867 -2.72011,-3.53101 -1.61826,-1.62326 -3.97166,-2.8288 z m -11.01908,12.8277 q 0.68579,0.0921 1.26631,1.53773 0.65946,1.42752 1.20214,3.79576 0.9949,4.34177 1.25466,9.10126 0.25975,4.75948 -0.10543,9.32983 -0.28625,4.55225 -1.07574,8.72131 -0.78948,4.16905 -1.87498,7.4089 -1.10359,3.1609 -2.38149,5.19854 -1.19895,2.01955 -2.46201,2.30898 -1.342,0.30751 -2.31064,-1.38151 -0.98673,-1.76797 -1.61985,-4.53091 -0.86828,-3.78918 -0.97015,-8.58485 -0.11997,-4.8746 0.48204,-9.49921 0.48523,-3.68391 1.38984,-7.71317 0.9046,-4.02926 2.05096,-7.36613 1.2072,-3.43391 2.50977,-5.72646 1.30257,-2.29256 2.56563,-2.58198 z"
         style="font-style:normal;font-variant:normal;font-weight:normal;font-stretch:normal;font-family:'Komika Title - Paint';-inkscape-font-specification:'Komika Title - Paint';stroke-width:2.02468"
         id="path354" />
      <path
         d="m -399.46232,429.29019 q 2.18371,0.29158 3.9811,0.23723 1.79739,-0.0543 3.31506,-0.30825 6.62981,-1.10912 11.03372,-6.19784 4.48379,-5.10208 7.19451,-13.93107 2.79061,-8.84235 4.2209,-21.39854 1.43028,-12.55619 1.9531,-28.57353 0.0529,-0.66574 -0.014,-1.06513 -3e-4,-0.49263 -0.1072,-1.13165 -0.25389,-1.51766 -2.19857,-2.83459 -1.87817,-1.41016 -4.50166,-2.36719 -2.54361,-0.97039 -5.31318,-1.32819 -2.70307,-0.45103 -4.7,-0.11696 -1.7573,0.29398 -2.71523,1.43959 -0.95792,1.14561 -1.07639,3.38247 -0.19684,4.71336 -0.5659,10.85144 -0.36906,6.13809 -0.91094,12.71565 -0.55524,6.49768 -1.20372,12.92885 -0.66184,6.3513 -1.53749,11.42455 -0.88901,4.99338 -1.97877,8.29597 -1.10311,3.22272 -2.38115,3.43653 -0.66574,-0.0529 -0.95913,-0.8249 -0.22687,-0.86529 -0.50749,-2.54271 -0.13363,-0.79877 -0.28062,-1.67742 -0.0671,-0.89202 -0.25419,-2.0103 l -0.0802,-0.47926 q -1.21602,-7.26883 -10.87051,-10.00568 -1.73117,-0.53152 -2.84945,-0.34444 -1.91706,0.32071 -2.91447,2.21194 -1.01078,1.81135 -1.34215,4.24806 -0.42461,2.37019 -0.31651,4.97971 0.0282,2.62289 0.32221,4.38019 0.4677,2.7957 1.68102,5.6309 1.12008,2.76867 3.23848,5.124 2.10504,2.27545 5.1683,3.89792 3.14314,1.60911 7.47047,1.95265 z"
         style="font-style:normal;font-variant:normal;font-weight:normal;font-stretch:normal;font-family:'Komika Title - Paint';-inkscape-font-specification:'Komika Title - Paint';stroke-width:2.02468"
         id="path356" />
      <path
         d="m -357.69056,352.85511 -7.87726,55.18864 q -0.10348,1.23453 0.0344,2.44149 0.23906,2.09206 1.04826,3.46685 0.80921,1.37479 2.07362,2.45303 l -0.009,-0.0805 q 1.55177,1.45297 2.82537,2.61167 1.34487,1.06904 2.5817,1.90589 1.22763,0.75638 2.57021,1.09205 1.42305,0.32648 3.19325,0.1242 1.52881,-0.17469 3.71744,-0.99538 l -0.0713,0.0897 q 4.94049,-1.70573 10.20284,-3.44824 5.33361,-1.83217 10.35457,-3.5471 2.27828,-0.74942 3.08063,-1.57473 0.80235,-0.82531 0.59088,-2.67597 -0.23905,-2.09206 -1.31032,-4.33356 -0.99081,-2.2507 -2.17704,-4.0715 l 0.009,0.0805 q -0.94484,-1.84838 -2.40467,-2.49671 -1.38855,-0.73799 -3.56107,-0.48974 -3.62087,0.41374 -6.86471,1.27349 -3.16339,0.85055 -6.15665,1.76318 -0.005,-1.46673 0.42767,-3.39095 0.42305,-2.00468 0.88287,-3.68751 2.74268,-0.96551 5.58421,-1.77929 2.83233,-0.89424 5.81639,-1.88734 l -0.0805,0.009 q 2.05528,-0.56091 3.95882,-1.02296 1.97482,-0.55172 3.368,-1.2 1.47365,-0.65747 2.2668,-1.56325 0.86443,-0.99543 0.70813,-2.36331 -0.0828,-0.72417 -0.54252,-1.89435 l 0.0897,0.0713 q -0.5954,-1.64377 -1.18161,-3.20707 -0.5954,-1.64377 -1.77243,-3.3841 l 0.009,0.0805 q -1.11496,-1.91045 -2.56559,-2.47832 -1.45063,-0.56787 -3.78408,-0.30124 l -0.56324,0.0644 q -3.53121,0.48502 -6.94518,1.28269 0.77711,-3.18634 1.47375,-6.36349 0.68745,-3.25761 1.34961,-6.02324 4.906,-1.29422 9.27633,-2.28269 4.36115,-1.06893 8.49929,-1.94936 2.61852,-0.62526 3.48295,-1.6207 0.86443,-0.99543 0.61618,-3.16795 -0.12872,-1.12649 -0.5701,-2.13574 l 0.0897,0.0713 q -0.3977,-1.3403 -0.85747,-2.51048 -0.45977,-1.17018 -1.47587,-2.9289 l 0.009,0.0805 q -0.96323,-2.0093 -2.5311,-2.88983 -1.48741,-0.88973 -4.06225,-0.59551 l -0.40231,0.046 q -4.24619,0.64823 -8.52687,1.70797 -4.28068,1.05973 -8.38204,2.26201 -4.0209,1.19309 -7.78202,2.51951 -3.68985,1.23677 -6.81646,2.40918 z"
         style="font-style:normal;font-variant:normal;font-weight:normal;font-stretch:normal;font-family:'Komika Title - Paint';-inkscape-font-specification:'Komika Title - Paint';stroke-width:2.02468"
         id="path358" />
      <path
         d="m -274.01616,391.5191 q -1.31893,-0.32168 -2.54158,-0.40603 -1.14699,-0.17034 -2.27851,-0.0982 -5.25351,0.33493 -9.02673,4.79537 -5.19035,6.41728 -7.69587,6.57701 l -0.32329,0.0206 q -0.99565,-0.34228 -1.49766,-1.85216 -0.50717,-1.5907 -0.6566,-3.93457 -0.22672,-3.55623 0.36348,-8.30065 0.5902,-4.74443 1.91296,-9.4544 1.06645,-3.63867 2.75373,-7.72267 1.68212,-4.16483 3.48629,-7.68822 1.88499,-3.52854 3.68047,-5.91526 1.79033,-2.46754 2.99752,-2.62565 0.42473,0.29753 0.6379,1.09546 0.20802,0.7171 0.2647,1.60615 0.0773,1.21235 0.0187,2.83912 0.0171,1.5408 0.11498,3.07644 0.38675,2.24759 1.14669,3.98448 0.75995,1.73689 2.05989,3.03359 1.29479,1.21588 3.21556,2.06725 1.91561,0.77054 4.69967,1.16111 0.57607,0.12558 1.06101,0.0947 0.48494,-0.0309 0.88905,-0.0567 2.1014,-0.13397 2.70162,-0.9026 0.67588,-0.8546 1.07322,-2.25951 0.0705,-0.1668 0.22186,-0.33875 0.47301,-1.49089 0.75862,-3.37559 0.36127,-1.97067 0.55575,-4.01186 0.19447,-2.04119 0.2273,-4.07208 0.0277,-2.11171 -0.0857,-3.88982 -0.21126,-3.31375 -1.35633,-5.99991 -1.14507,-2.68616 -4.62371,-5.06124 -1.36016,-0.96826 -3.27577,-1.7388 -1.83994,-0.85652 -3.9069,-1.45511 -2.06695,-0.59859 -4.28009,-0.94441 -2.21315,-0.34581 -4.24919,-0.45947 l 0.0808,-0.005 q -0.40927,-0.0551 -0.89421,-0.0241 -0.40412,0.0258 -0.80823,0.0515 -4.8494,0.30917 -9.12463,3.25973 -4.27524,2.95056 -7.87136,7.64317 -3.52044,4.60663 -6.31186,10.46521 -2.79142,5.85858 -4.66801,12.0646 -1.8766,6.20601 -2.70765,12.26422 -0.8362,5.97739 -0.52189,10.9076 0.20096,3.15211 0.87139,6.03083 0.58447,2.80305 1.70377,5.08509 l -0.0103,-0.16165 q 0.57768,1.4239 1.55949,2.82204 1.06263,1.39299 2.27144,2.5332 1.28964,1.13506 2.63949,1.94167 1.3447,0.72579 2.57766,0.97179 l -0.0808,0.005 q 2.40056,0.73963 5.37203,1.52401 2.97146,0.78438 6.63427,0.95663 l -0.0808,0.005 q 0.40927,0.0551 0.89421,0.0241 0.48494,-0.0309 1.13152,-0.0721 7.75903,-0.49466 13.06789,-5.05301 5.30886,-4.55834 8.18979,-11.55875 0.55899,-1.41522 0.96664,-2.65848 0.40249,-1.32409 0.33036,-2.45561 -0.10306,-1.61647 -1.14507,-2.68616 -0.96635,-1.15567 -3.10898,-1.66828 z"
         style="font-style:normal;font-variant:normal;font-weight:normal;font-stretch:normal;font-family:'Komika Title - Paint';-inkscape-font-specification:'Komika Title - Paint';stroke-width:2.02468"
         id="path360" />
      <path
         d="m -202.20512,349.84222 q -0.0148,-1.13373 -0.35558,-2.42519 -0.34081,-1.29147 -0.92456,-2.57976 -0.58481,-1.36928 -1.32947,-2.57449 -0.66367,-1.20626 -1.40516,-2.16853 -0.98654,-1.12106 -2.28962,-1.67103 -1.30413,-0.63096 -3.8955,-0.59718 -4.28985,0.2179 -9.62928,0.69246 -5.33943,0.47457 -10.9197,1.11426 -5.58026,0.63969 -10.99644,1.43923 -5.33521,0.79849 -9.61662,1.66423 -1.61539,0.34503 -2.49667,1.08547 -0.80136,0.6584 -0.78131,2.19702 0.0137,1.05275 0.35031,2.02029 l -0.001,-0.081 0.25244,0.72566 q 0.50488,1.45131 1.25692,3.22338 0.83303,1.77102 1.8259,3.37796 1.07386,1.60589 2.38432,2.72273 1.39039,1.0348 3.09098,1.01263 1.53863,-0.02 3.23394,-0.44712 1.69531,-0.42707 4.03846,-0.86258 -1.54994,5.36582 -3.24918,11.70551 -1.61932,6.25766 -3.07668,12.51321 -1.45841,6.17456 -2.68021,11.86008 -1.14082,5.68446 -1.81687,9.74298 l -0.001,-0.081 q -0.38379,1.62489 -0.37112,2.59665 0.0401,3.07726 2.08467,4.5895 2.12449,1.43021 5.37848,2.52171 l -0.081,0.001 q 1.70904,0.62568 3.41596,1.08939 1.70692,0.46372 2.84064,0.44894 1.45765,-0.019 2.41992,-0.76049 0.96226,-0.74149 1.34289,-2.60931 l -0.0799,0.082 q 1.61615,-6.50059 3.46575,-13.73318 1.93057,-7.23365 4.02205,-14.55038 2.09042,-7.39772 4.18295,-14.63348 2.09148,-7.31673 4.03049,-13.90253 3.31598,-0.3672 6.30909,-0.64919 3.07409,-0.28305 5.90312,-0.7249 2.42731,-0.19362 3.30859,-0.93406 0.88023,-0.82141 0.85912,-2.44102 z"
         style="font-style:normal;font-variant:normal;font-weight:normal;font-stretch:normal;font-family:'Komika Title - Paint';-inkscape-font-specification:'Komika Title - Paint';stroke-width:2.02468"
         id="path362" />
      <path
         d="m -210.65442,391.27216 q -1.15455,0.61019 -1.83412,1.56016 -0.67956,0.94997 -0.87881,2.07784 l -0.0107,0.32377 q -0.0614,1.8617 3.20482,6.02094 5.35561,7.14525 11.24669,10.33761 5.89107,3.19237 12.52843,3.41117 l 1.05226,0.0347 q 5.26398,0.0925 9.11635,-1.23906 3.93064,-1.24795 6.66848,-3.18348 2.74051,-2.01647 4.43676,-4.31046 1.77719,-2.29132 2.81522,-4.28288 l -0.0836,0.0783 q 1.37782,-2.46655 1.45253,-4.73297 0.11207,-3.39961 -1.98534,-6.14279 -2.09474,-2.82412 -5.24976,-5.4401 -3.15234,-2.69692 -6.7094,-5.40719 -3.47345,-2.78854 -6.20507,-5.95778 -0.86102,-0.91973 -1.23105,-1.98533 -0.28908,-1.06294 -0.25439,-2.1152 0.072,-2.18547 1.19902,-4.41719 1.21059,-2.31 2.81523,-4.28289 1.6073,-2.05382 3.35781,-3.53571 1.83145,-1.47922 3.2315,-2.16235 0.0836,-0.0783 0.0836,-0.0783 0.081,0.003 0.16456,-0.0756 -0.28819,1.36803 -0.91617,3.21105 -0.54703,1.84569 -1.17768,3.76965 -0.54703,1.84568 -1.00512,3.45121 -0.45808,1.60552 -0.48477,2.41496 -0.22414,6.79924 9.76569,11.01807 1.27908,0.52835 2.49323,0.56838 1.45698,0.048 2.37138,-0.65111 0.91439,-0.69914 1.77719,-2.29132 1.03269,-1.82968 2.00312,-4.22862 1.05404,-2.47723 1.94886,-5.04073 0.89749,-2.64444 1.62776,-5.13234 0.73294,-2.56884 1.12609,-4.66269 l 0.064,-1.94264 q 0.0774,-2.34736 -0.49011,-4.797 -0.56483,-2.5306 -3.06962,-5.20617 -1.48723,-1.58862 -3.62734,-3.03671 -2.05916,-1.44541 -4.45277,-2.57773 -2.31,-1.21059 -4.71695,-1.93819 -2.32601,-0.72493 -4.34959,-0.79164 -2.91396,-0.0961 -5.36895,0.63332 -2.37404,0.73205 -3.78743,1.8199 l 0.0836,-0.0783 q -2.88638,1.52547 -5.88306,3.93865 -2.91307,2.33491 -5.59665,5.08254 -2.60264,2.75029 -4.72762,5.75943 -2.04137,2.93086 -3.10342,5.65091 l 0.0836,-0.0783 q -2.09207,4.46878 -2.22816,8.59689 -0.13608,4.12811 1.36537,7.74299 1.50146,3.61487 4.24642,6.3794 l 0.003,-0.0809 q 2.18903,2.42207 5.02827,4.78455 2.92286,2.2842 5.52995,4.3149 2.60708,2.03069 4.41808,3.62999 1.89461,1.52102 2.02448,2.49768 -1.07895,0.77474 -2.85971,0.71604 -5.18037,-0.17078 -13.47662,-6.60265 -1.41962,-1.18124 -3.34625,-1.73094 -1.92396,-0.63065 -4.02849,-0.70003 -1.45698,-0.048 -3.00557,0.22505 -1.54593,0.19213 -3.02426,0.79164 z"
         style="font-style:normal;font-variant:normal;font-weight:normal;font-stretch:normal;font-family:'Komika Title - Paint';-inkscape-font-specification:'Komika Title - Paint';stroke-width:2.02468"
         id="path364" />
    </g>
    <g
       aria-label="PROJECTS"
       id="text325-2"
       style="font-style:normal;font-weight:normal;font-size:80.9873px;line-height:1.25;font-family:sans-serif;fill:#ffff00;fill-opacity:1;stroke:none;stroke-width:2.02468"
       transform="translate(753.01897,180.48268)">
      <path
         d="m -541.68879,425.49602 q 1.64413,-3.90747 2.44472,-7.75695 0.84784,-3.95381 -0.66463,-7.97084 -0.9988,-2.65275 -2.64139,-4.71696 -1.59533,-2.16853 -3.50273,-3.78688 -1.86014,-1.72268 -3.88077,-2.95225 -1.97337,-1.3339 -3.69973,-2.24157 -2.76966,-1.38024 -5.73632,-1.21516 -2.9952,0.0893 -6.1785,1.28786 -3.2591,1.2271 -6.536,3.32628 -3.27689,2.09918 -6.45835,4.68166 -3.10568,2.55393 -5.94561,5.35397 -2.79268,2.6957 -5.13061,5.22018 -0.78554,0.90154 -0.58119,4.89187 0.17582,3.91453 0.90367,9.52504 0.80364,5.58198 1.87393,12.10201 1.0703,6.52003 1.99791,12.6611 0.97486,6.03673 1.52166,10.93657 0.59406,4.79551 0.32219,7.06132 0.0786,2.04733 0.50661,3.18422 0.71343,1.89483 2.07954,2.76507 1.29032,0.89877 2.9685,1.21883 1.75397,0.29151 3.8013,0.21296 2.04733,-0.0786 4.09466,-0.1571 1.07092,-0.14361 2.05623,-0.51459 1.59165,-0.59928 2.0642,-1.64259 0.47256,-1.0433 0.58395,-2.81599 -0.56552,-4.71972 -0.97946,-9.49651 -0.36668,-4.88113 -0.79043,-9.91383 4.0339,-3.07651 7.89658,-6.60778 3.90994,-3.63559 7.25097,-7.40314 3.41682,-3.79608 6.03736,-7.6385 2.66779,-3.94674 4.32174,-7.5983 z m -27.15685,-7.08254 q 2.10165,-2.00283 4.28001,-3.34224 2.17835,-1.33942 3.92159,-1.99577 1.36427,-0.51367 2.02769,-0.59039 0.71067,-0.18104 0.94787,-0.0107 0.28446,0.066 0.29427,0.32189 -0.0187,0.18013 0.0384,0.33171 0.54221,1.44007 0.11875,3.76295 -0.37621,2.21855 -1.72791,5.06401 -1.30444,2.74112 -3.64144,5.95755 -2.36554,3.14065 -5.78328,6.24477 -0.16693,-4.35057 -0.31421,-8.18931 -0.10003,-3.94307 -0.1617,-7.55443 z"
         style="font-style:normal;font-variant:normal;font-weight:normal;font-stretch:normal;font-family:'Komika Title - Paint';-inkscape-font-specification:'Komika Title - Paint';fill:#ffff00;stroke-width:2.02468"
         id="path350-9" />
      <path
         d="m -491.25064,448.09322 q 2.25745,0.75987 4.12694,0.79063 1.86948,0.0308 3.34328,-0.41162 1.00839,-0.30268 1.79179,-0.7915 0.80669,-0.41124 1.66766,-0.92334 l -0.0543,0.10085 q 0.59727,-0.26383 1.56681,-0.97764 1.02383,-0.81465 1.92352,-1.76116 0.95398,-1.04735 1.45027,-2.211 0.55058,-1.2645 0.20133,-2.42803 -0.51222,-1.7065 -2.70766,-2.82322 l 0.0233,0.0776 q -2.11788,-1.13999 -4.58487,-2.59798 -2.49028,-1.53556 -5.10469,-3.20297 -2.53685,-1.69069 -5.07369,-3.38139 -2.48256,-1.79154 -4.66256,-3.42023 7.01154,-6.50154 11.55633,-12.77 4.59907,-6.36931 5.70745,-12.53643 l 0.0233,0.0776 q 0.22474,-1.50493 0.1392,-2.91672 -0.0312,-1.51265 -0.54347,-3.21915 -0.88475,-2.9476 -2.3512,-5.29781 -1.46645,-2.35021 -3.28189,-4.17288 -1.73788,-1.84595 -3.66962,-3.21093 -1.87745,-1.46584 -3.66177,-2.6214 -2.91696,-1.83026 -6.24481,-1.93062 -3.25027,-0.12364 -6.50814,0.85424 -2.79246,0.83818 -5.70894,2.39004 -2.8389,1.52858 -5.71652,3.49157 -2.82334,1.86213 -5.53027,4.11211 -2.73021,2.17241 -5.20443,4.35254 -1.34182,1.16377 -1.93075,5.39927 -0.58892,4.23551 -0.68891,10.09995 -0.0224,5.84115 0.25784,12.6907 0.35783,6.82626 0.75438,13.21812 0.45083,6.291 0.85498,11.58134 0.38086,5.21276 0.58293,7.85793 0.16311,1.38851 0.48907,2.47447 0.62864,2.09435 1.77684,3.10261 1.14821,1.00827 2.6997,1.38814 1.52821,0.30231 3.37441,0.25549 1.8462,-0.0468 3.87083,-0.0626 1.10152,0.008 2.03234,-0.2718 1.55136,-0.46565 2.09422,-1.47417 0.62042,-1.03179 0.62017,-2.72286 -0.0937,-4.53793 -0.0866,-9.02158 0.007,-4.48365 -10e-4,-9.30085 2.52912,1.94668 5.26767,3.74594 2.73855,1.79927 5.43053,3.4434 2.74626,1.54327 5.24426,2.82284 2.498,1.27957 4.44517,2.13258 z m -10.81368,-54.33744 q 3.10273,-0.93132 3.79325,-0.0393 l 0.0233,0.0776 q 0.34925,1.16353 -0.33306,3.3977 -0.60473,2.21088 -2.22558,4.98043 -1.54328,2.74626 -4.17251,5.81849 -2.55167,3.04894 -5.99543,5.94287 -0.008,-0.58954 0.008,-1.10152 0.0154,-0.51197 0.0309,-1.02395 l 0.0233,0.0776 q 0.13908,-3.76225 0.23944,-7.09009 0.15464,-3.4287 0.42569,-6.46955 2.15623,-1.83101 4.2893,-2.89405 2.10979,-1.14062 3.89386,-1.67612 z"
         style="font-style:normal;font-variant:normal;font-weight:normal;font-stretch:normal;font-family:'Komika Title - Paint';-inkscape-font-specification:'Komika Title - Paint';fill:#ffff00;stroke-width:2.02468"
         id="path352-2" />
      <path
         d="m -433.81611,365.02465 q -1.49822,-0.73681 -3.62797,-1.3289 -2.12975,-0.5921 -4.521,-0.87502 -2.33039,-0.37994 -4.80717,-0.31092 -2.39783,0.0509 -4.52924,0.53935 -2.84189,0.65121 -5.68544,2.38292 -2.84355,1.73171 -4.81383,4.0111 -4.06884,5.08668 -6.76775,11.43808 -2.69892,6.35141 -4.05091,13.14195 -1.27305,6.77245 -1.22877,13.4923 0.0443,6.71984 1.40097,12.64044 2.64101,11.52543 9.25059,16.07617 6.67042,4.45371 17.40477,3.07409 l -0.0789,0.0181 q 1.79097,-0.16113 3.52768,-0.55909 5.21013,-1.19389 8.8941,-4.69682 3.66589,-3.58188 6.0227,-8.52551 2.43575,-4.96172 3.65286,-10.89049 1.27797,-6.0258 1.55438,-12.07136 0.35535,-6.06364 -0.12148,-11.77042 -0.47683,-5.70678 -1.48982,-10.1275 -0.61503,-2.684 -1.39453,-4.99797 -0.7795,-2.31397 -1.89943,-4.30067 -1.11994,-1.9867 -2.72011,-3.53101 -1.61826,-1.62326 -3.97166,-2.8288 z m -11.01908,12.8277 q 0.68579,0.0921 1.26631,1.53773 0.65946,1.42752 1.20214,3.79576 0.9949,4.34177 1.25466,9.10126 0.25975,4.75948 -0.10543,9.32983 -0.28625,4.55225 -1.07574,8.72131 -0.78948,4.16905 -1.87498,7.4089 -1.10359,3.1609 -2.38149,5.19854 -1.19895,2.01955 -2.46201,2.30898 -1.342,0.30751 -2.31064,-1.38151 -0.98673,-1.76797 -1.61985,-4.53091 -0.86828,-3.78918 -0.97015,-8.58485 -0.11997,-4.8746 0.48204,-9.49921 0.48523,-3.68391 1.38984,-7.71317 0.9046,-4.02926 2.05096,-7.36613 1.2072,-3.43391 2.50977,-5.72646 1.30257,-2.29256 2.56563,-2.58198 z"
         style="font-style:normal;font-variant:normal;font-weight:normal;font-stretch:normal;font-family:'Komika Title - Paint';-inkscape-font-specification:'Komika Title - Paint';fill:#ffff00;stroke-width:2.02468"
         id="path354-3" />
      <path
         d="m -399.46232,429.29019 q 2.18371,0.29158 3.9811,0.23723 1.79739,-0.0543 3.31506,-0.30825 6.62981,-1.10912 11.03372,-6.19784 4.48379,-5.10208 7.19451,-13.93107 2.79061,-8.84235 4.2209,-21.39854 1.43028,-12.55619 1.9531,-28.57353 0.0529,-0.66574 -0.014,-1.06513 -3e-4,-0.49263 -0.1072,-1.13165 -0.25389,-1.51766 -2.19857,-2.83459 -1.87817,-1.41016 -4.50166,-2.36719 -2.54361,-0.97039 -5.31318,-1.32819 -2.70307,-0.45103 -4.7,-0.11696 -1.7573,0.29398 -2.71523,1.43959 -0.95792,1.14561 -1.07639,3.38247 -0.19684,4.71336 -0.5659,10.85144 -0.36906,6.13809 -0.91094,12.71565 -0.55524,6.49768 -1.20372,12.92885 -0.66184,6.3513 -1.53749,11.42455 -0.88901,4.99338 -1.97877,8.29597 -1.10311,3.22272 -2.38115,3.43653 -0.66574,-0.0529 -0.95913,-0.8249 -0.22687,-0.86529 -0.50749,-2.54271 -0.13363,-0.79877 -0.28062,-1.67742 -0.0671,-0.89202 -0.25419,-2.0103 l -0.0802,-0.47926 q -1.21602,-7.26883 -10.87051,-10.00568 -1.73117,-0.53152 -2.84945,-0.34444 -1.91706,0.32071 -2.91447,2.21194 -1.01078,1.81135 -1.34215,4.24806 -0.42461,2.37019 -0.31651,4.97971 0.0282,2.62289 0.32221,4.38019 0.4677,2.7957 1.68102,5.6309 1.12008,2.76867 3.23848,5.124 2.10504,2.27545 5.1683,3.89792 3.14314,1.60911 7.47047,1.95265 z"
         style="font-style:normal;font-variant:normal;font-weight:normal;font-stretch:normal;font-family:'Komika Title - Paint';-inkscape-font-specification:'Komika Title - Paint';fill:#ffff00;stroke-width:2.02468"
         id="path356-7" />
      <path
         d="m -357.69056,352.85511 -7.87726,55.18864 q -0.10348,1.23453 0.0344,2.44149 0.23906,2.09206 1.04826,3.46685 0.80921,1.37479 2.07362,2.45303 l -0.009,-0.0805 q 1.55177,1.45297 2.82537,2.61167 1.34487,1.06904 2.5817,1.90589 1.22763,0.75638 2.57021,1.09205 1.42305,0.32648 3.19325,0.1242 1.52881,-0.17469 3.71744,-0.99538 l -0.0713,0.0897 q 4.94049,-1.70573 10.20284,-3.44824 5.33361,-1.83217 10.35457,-3.5471 2.27828,-0.74942 3.08063,-1.57473 0.80235,-0.82531 0.59088,-2.67597 -0.23905,-2.09206 -1.31032,-4.33356 -0.99081,-2.2507 -2.17704,-4.0715 l 0.009,0.0805 q -0.94484,-1.84838 -2.40467,-2.49671 -1.38855,-0.73799 -3.56107,-0.48974 -3.62087,0.41374 -6.86471,1.27349 -3.16339,0.85055 -6.15665,1.76318 -0.005,-1.46673 0.42767,-3.39095 0.42305,-2.00468 0.88287,-3.68751 2.74268,-0.96551 5.58421,-1.77929 2.83233,-0.89424 5.81639,-1.88734 l -0.0805,0.009 q 2.05528,-0.56091 3.95882,-1.02296 1.97482,-0.55172 3.368,-1.2 1.47365,-0.65747 2.2668,-1.56325 0.86443,-0.99543 0.70813,-2.36331 -0.0828,-0.72417 -0.54252,-1.89435 l 0.0897,0.0713 q -0.5954,-1.64377 -1.18161,-3.20707 -0.5954,-1.64377 -1.77243,-3.3841 l 0.009,0.0805 q -1.11496,-1.91045 -2.56559,-2.47832 -1.45063,-0.56787 -3.78408,-0.30124 l -0.56324,0.0644 q -3.53121,0.48502 -6.94518,1.28269 0.77711,-3.18634 1.47375,-6.36349 0.68745,-3.25761 1.34961,-6.02324 4.906,-1.29422 9.27633,-2.28269 4.36115,-1.06893 8.49929,-1.94936 2.61852,-0.62526 3.48295,-1.6207 0.86443,-0.99543 0.61618,-3.16795 -0.12872,-1.12649 -0.5701,-2.13574 l 0.0897,0.0713 q -0.3977,-1.3403 -0.85747,-2.51048 -0.45977,-1.17018 -1.47587,-2.9289 l 0.009,0.0805 q -0.96323,-2.0093 -2.5311,-2.88983 -1.48741,-0.88973 -4.06225,-0.59551 l -0.40231,0.046 q -4.24619,0.64823 -8.52687,1.70797 -4.28068,1.05973 -8.38204,2.26201 -4.0209,1.19309 -7.78202,2.51951 -3.68985,1.23677 -6.81646,2.40918 z"
         style="font-style:normal;font-variant:normal;font-weight:normal;font-stretch:normal;font-family:'Komika Title - Paint';-inkscape-font-specification:'Komika Title - Paint';fill:#ffff00;stroke-width:2.02468"
         id="path358-7" />
      <path
         d="m -274.01616,391.5191 q -1.31893,-0.32168 -2.54158,-0.40603 -1.14699,-0.17034 -2.27851,-0.0982 -5.25351,0.33493 -9.02673,4.79537 -5.19035,6.41728 -7.69587,6.57701 l -0.32329,0.0206 q -0.99565,-0.34228 -1.49766,-1.85216 -0.50717,-1.5907 -0.6566,-3.93457 -0.22672,-3.55623 0.36348,-8.30065 0.5902,-4.74443 1.91296,-9.4544 1.06645,-3.63867 2.75373,-7.72267 1.68212,-4.16483 3.48629,-7.68822 1.88499,-3.52854 3.68047,-5.91526 1.79033,-2.46754 2.99752,-2.62565 0.42473,0.29753 0.6379,1.09546 0.20802,0.7171 0.2647,1.60615 0.0773,1.21235 0.0187,2.83912 0.0171,1.5408 0.11498,3.07644 0.38675,2.24759 1.14669,3.98448 0.75995,1.73689 2.05989,3.03359 1.29479,1.21588 3.21556,2.06725 1.91561,0.77054 4.69967,1.16111 0.57607,0.12558 1.06101,0.0947 0.48494,-0.0309 0.88905,-0.0567 2.1014,-0.13397 2.70162,-0.9026 0.67588,-0.8546 1.07322,-2.25951 0.0705,-0.1668 0.22186,-0.33875 0.47301,-1.49089 0.75862,-3.37559 0.36127,-1.97067 0.55575,-4.01186 0.19447,-2.04119 0.2273,-4.07208 0.0277,-2.11171 -0.0857,-3.88982 -0.21126,-3.31375 -1.35633,-5.99991 -1.14507,-2.68616 -4.62371,-5.06124 -1.36016,-0.96826 -3.27577,-1.7388 -1.83994,-0.85652 -3.9069,-1.45511 -2.06695,-0.59859 -4.28009,-0.94441 -2.21315,-0.34581 -4.24919,-0.45947 l 0.0808,-0.005 q -0.40927,-0.0551 -0.89421,-0.0241 -0.40412,0.0258 -0.80823,0.0515 -4.8494,0.30917 -9.12463,3.25973 -4.27524,2.95056 -7.87136,7.64317 -3.52044,4.60663 -6.31186,10.46521 -2.79142,5.85858 -4.66801,12.0646 -1.8766,6.20601 -2.70765,12.26422 -0.8362,5.97739 -0.52189,10.9076 0.20096,3.15211 0.87139,6.03083 0.58447,2.80305 1.70377,5.08509 l -0.0103,-0.16165 q 0.57768,1.4239 1.55949,2.82204 1.06263,1.39299 2.27144,2.5332 1.28964,1.13506 2.63949,1.94167 1.3447,0.72579 2.57766,0.97179 l -0.0808,0.005 q 2.40056,0.73963 5.37203,1.52401 2.97146,0.78438 6.63427,0.95663 l -0.0808,0.005 q 0.40927,0.0551 0.89421,0.0241 0.48494,-0.0309 1.13152,-0.0721 7.75903,-0.49466 13.06789,-5.05301 5.30886,-4.55834 8.18979,-11.55875 0.55899,-1.41522 0.96664,-2.65848 0.40249,-1.32409 0.33036,-2.45561 -0.10306,-1.61647 -1.14507,-2.68616 -0.96635,-1.15567 -3.10898,-1.66828 z"
         style="font-style:normal;font-variant:normal;font-weight:normal;font-stretch:normal;font-family:'Komika Title - Paint';-inkscape-font-specification:'Komika Title - Paint';fill:#ffff00;stroke-width:2.02468"
         id="path360-2" />
      <path
         d="m -202.20512,349.84222 q -0.0148,-1.13373 -0.35558,-2.42519 -0.34081,-1.29147 -0.92456,-2.57976 -0.58481,-1.36928 -1.32947,-2.57449 -0.66367,-1.20626 -1.40516,-2.16853 -0.98654,-1.12106 -2.28962,-1.67103 -1.30413,-0.63096 -3.8955,-0.59718 -4.28985,0.2179 -9.62928,0.69246 -5.33943,0.47457 -10.9197,1.11426 -5.58026,0.63969 -10.99644,1.43923 -5.33521,0.79849 -9.61662,1.66423 -1.61539,0.34503 -2.49667,1.08547 -0.80136,0.6584 -0.78131,2.19702 0.0137,1.05275 0.35031,2.02029 l -0.001,-0.081 0.25244,0.72566 q 0.50488,1.45131 1.25692,3.22338 0.83303,1.77102 1.8259,3.37796 1.07386,1.60589 2.38432,2.72273 1.39039,1.0348 3.09098,1.01263 1.53863,-0.02 3.23394,-0.44712 1.69531,-0.42707 4.03846,-0.86258 -1.54994,5.36582 -3.24918,11.70551 -1.61932,6.25766 -3.07668,12.51321 -1.45841,6.17456 -2.68021,11.86008 -1.14082,5.68446 -1.81687,9.74298 l -0.001,-0.081 q -0.38379,1.62489 -0.37112,2.59665 0.0401,3.07726 2.08467,4.5895 2.12449,1.43021 5.37848,2.52171 l -0.081,0.001 q 1.70904,0.62568 3.41596,1.08939 1.70692,0.46372 2.84064,0.44894 1.45765,-0.019 2.41992,-0.76049 0.96226,-0.74149 1.34289,-2.60931 l -0.0799,0.082 q 1.61615,-6.50059 3.46575,-13.73318 1.93057,-7.23365 4.02205,-14.55038 2.09042,-7.39772 4.18295,-14.63348 2.09148,-7.31673 4.03049,-13.90253 3.31598,-0.3672 6.30909,-0.64919 3.07409,-0.28305 5.90312,-0.7249 2.42731,-0.19362 3.30859,-0.93406 0.88023,-0.82141 0.85912,-2.44102 z"
         style="font-style:normal;font-variant:normal;font-weight:normal;font-stretch:normal;font-family:'Komika Title - Paint';-inkscape-font-specification:'Komika Title - Paint';fill:#ffff00;stroke-width:2.02468"
         id="path362-5" />
      <path
         d="m -210.65442,391.27216 q -1.15455,0.61019 -1.83412,1.56016 -0.67956,0.94997 -0.87881,2.07784 l -0.0107,0.32377 q -0.0614,1.8617 3.20482,6.02094 5.35561,7.14525 11.24669,10.33761 5.89107,3.19237 12.52843,3.41117 l 1.05226,0.0347 q 5.26398,0.0925 9.11635,-1.23906 3.93064,-1.24795 6.66848,-3.18348 2.74051,-2.01647 4.43676,-4.31046 1.77719,-2.29132 2.81522,-4.28288 l -0.0836,0.0783 q 1.37782,-2.46655 1.45253,-4.73297 0.11207,-3.39961 -1.98534,-6.14279 -2.09474,-2.82412 -5.24976,-5.4401 -3.15234,-2.69692 -6.7094,-5.40719 -3.47345,-2.78854 -6.20507,-5.95778 -0.86102,-0.91973 -1.23105,-1.98533 -0.28908,-1.06294 -0.25439,-2.1152 0.072,-2.18547 1.19902,-4.41719 1.21059,-2.31 2.81523,-4.28289 1.6073,-2.05382 3.35781,-3.53571 1.83145,-1.47922 3.2315,-2.16235 0.0836,-0.0783 0.0836,-0.0783 0.081,0.003 0.16456,-0.0756 -0.28819,1.36803 -0.91617,3.21105 -0.54703,1.84569 -1.17768,3.76965 -0.54703,1.84568 -1.00512,3.45121 -0.45808,1.60552 -0.48477,2.41496 -0.22414,6.79924 9.76569,11.01807 1.27908,0.52835 2.49323,0.56838 1.45698,0.048 2.37138,-0.65111 0.91439,-0.69914 1.77719,-2.29132 1.03269,-1.82968 2.00312,-4.22862 1.05404,-2.47723 1.94886,-5.04073 0.89749,-2.64444 1.62776,-5.13234 0.73294,-2.56884 1.12609,-4.66269 l 0.064,-1.94264 q 0.0774,-2.34736 -0.49011,-4.797 -0.56483,-2.5306 -3.06962,-5.20617 -1.48723,-1.58862 -3.62734,-3.03671 -2.05916,-1.44541 -4.45277,-2.57773 -2.31,-1.21059 -4.71695,-1.93819 -2.32601,-0.72493 -4.34959,-0.79164 -2.91396,-0.0961 -5.36895,0.63332 -2.37404,0.73205 -3.78743,1.8199 l 0.0836,-0.0783 q -2.88638,1.52547 -5.88306,3.93865 -2.91307,2.33491 -5.59665,5.08254 -2.60264,2.75029 -4.72762,5.75943 -2.04137,2.93086 -3.10342,5.65091 l 0.0836,-0.0783 q -2.09207,4.46878 -2.22816,8.59689 -0.13608,4.12811 1.36537,7.74299 1.50146,3.61487 4.24642,6.3794 l 0.003,-0.0809 q 2.18903,2.42207 5.02827,4.78455 2.92286,2.2842 5.52995,4.3149 2.60708,2.03069 4.41808,3.62999 1.89461,1.52102 2.02448,2.49768 -1.07895,0.77474 -2.85971,0.71604 -5.18037,-0.17078 -13.47662,-6.60265 -1.41962,-1.18124 -3.34625,-1.73094 -1.92396,-0.63065 -4.02849,-0.70003 -1.45698,-0.048 -3.00557,0.22505 -1.54593,0.19213 -3.02426,0.79164 z"
         style="font-style:normal;font-variant:normal;font-weight:normal;font-stretch:normal;font-family:'Komika Title - Paint';-inkscape-font-specification:'Komika Title - Paint';fill:#ffff00;stroke-width:2.02468"
         id="path364-2" />
    </g>
  </g>
  <metadata
     id="metadata294">
    <rdf:RDF>
      <cc:Work>
        <dc:format>image/svg+xml</dc:format>
        <dc:type
           rdf:resource="http://purl.org/dc/dcmitype/StillImage" />
        <cc:license
           rdf:resource="http://creativecommons.org/publicdomain/zero/1.0/" />
        <dc:publisher>
          <cc:Agent
             rdf:about="http://openclipart.org/">
            <dc:title>Openclipart</dc:title>
          </cc:Agent>
        </dc:publisher>
        <dc:title>Pow</dc:title>
        <dc:date>2011-02-26T18:46:37</dc:date>
        <dc:description />
        <dc:source>https://openclipart.org/detail/122959/pow-by-viscious-speed</dc:source>
        <dc:creator>
          <cc:Agent>
            <dc:title>Viscious-Speed</dc:title>
          </cc:Agent>
        </dc:creator>
        <dc:subject>
          <rdf:Bag>
            <rdf:li>Pow</rdf:li>
            <rdf:li>explosion</rdf:li>
          </rdf:Bag>
        </dc:subject>
      </cc:Work>
      <cc:License
         rdf:about="http://creativecommons.org/publicdomain/zero/1.0/">
        <cc:permits
           rdf:resource="http://creativecommons.org/ns#Reproduction" />
        <cc:permits
           rdf:resource="http://creativecommons.org/ns#Distribution" />
        <cc:permits
           rdf:resource="http://creativecommons.org/ns#DerivativeWorks" />
      </cc:License>
    </rdf:RDF>
  </metadata>
</svg>
